<?xml version="1.0" encoding="iso-8859-1"?>
<!-- Generator: Adobe Illustrator 19.0.0, SVG Export Plug-In . SVG Version: 6.00 Build 0)  -->
<svg version="1.1" id="Layer_1" xmlns="http://www.w3.org/2000/svg" xmlns:xlink="http://www.w3.org/1999/xlink" x="0px" y="0px"
	 viewBox="0 0 218.166 218.166" style="enable-background:new 0 0 218.166 218.166;" xml:space="preserve">
<g>
	<g>
		<g>
			<path d="M206.278,15.867H11.888C5.332,15.867,0,21.189,0,27.731v162.703c0,6.543,5.332,11.865,11.888,11.865h194.39
				c6.556,0,11.888-5.322,11.888-11.865V27.731C218.167,21.189,212.835,15.867,206.278,15.867z M210.233,190.434
				c0,2.169-1.774,3.932-3.955,3.932H11.888c-2.181,0-3.955-1.762-3.955-3.932V27.731c0-2.169,1.774-3.932,3.955-3.932h194.39
				c2.18,0,3.955,1.762,3.955,3.932V190.434z"/>
			<path d="M194.367,39.666H23.8c-2.19,0-3.967,1.774-3.967,3.967v57.741v3.967v41.425c0,2.192,1.776,3.967,3.967,3.967h170.567
				c2.19,0,3.967-1.774,3.967-3.967V119.82v-3.967V43.632C198.333,41.44,196.557,39.666,194.367,39.666z M190.4,119.82v22.979
				H27.767V105.34v-1.088c10.841-3.447,21.662-5.834,32.206-7.097c32.101-3.858,47.089,1.712,64.427,8.162
				c9.157,3.405,18.627,6.926,31.466,9.63c9.465,1.995,21.069,3.537,34.534,4.59V119.82z M190.4,111.572
				c-12.85-1.024-23.913-2.494-32.899-4.388c-12.26-2.58-21.451-6-30.337-9.305c-18.303-6.806-34.122-12.69-68.136-8.603
				c-10.256,1.232-20.749,3.529-31.261,6.727V47.599H190.4V111.572z"/>
			<path d="M162.633,87.266c8.749,0,15.867-7.116,15.867-15.867c0-8.751-7.118-15.867-15.867-15.867s-15.867,7.116-15.867,15.867
				C146.766,80.15,153.884,87.266,162.633,87.266z M162.633,63.466c4.375,0,7.933,3.56,7.933,7.933c0,4.373-3.558,7.933-7.933,7.933
				s-7.933-3.56-7.933-7.933C154.7,67.026,158.258,63.466,162.633,63.466z"/>
		</g>
	</g>
</g>
<g>
</g>
<g>
</g>
<g>
</g>
<g>
</g>
<g>
</g>
<g>
</g>
<g>
</g>
<g>
</g>
<g>
</g>
<g>
</g>
<g>
</g>
<g>
</g>
<g>
</g>
<g>
</g>
<g>
</g>
</svg>
